<svg width="33" height="31" viewBox="0 0 33 31" fill="none" xmlns="http://www.w3.org/2000/svg">
<g filter="url(#filter0_d_9_10)">
<path d="M9.93667 21.8788C11.81 22.6263 13.934 23 16.3087 23C18.657 23 20.7414 22.7224 22.562 22.1671C24.409 21.6119 25.8338 20.8431 26.8364 19.8607C27.8654 18.857 28.3799 17.7252 28.3799 16.4652C28.3799 15.611 28.0237 14.9383 27.3113 14.4471C26.5989 13.9559 25.6491 13.7103 24.4617 13.7103C23.8813 13.7103 23.2348 13.7744 22.5224 13.9025C22.6016 14.2228 22.6412 14.7354 22.6412 15.4401C22.6412 16.4652 22.0475 17.2981 20.8602 17.9387C19.6992 18.5794 18.1821 18.8997 16.3087 18.8997C14.3826 18.8997 12.8127 18.4619 11.5989 17.5864C10.4116 16.7108 9.81794 15.5789 9.81794 14.1908V8.74513C9.81794 7.37837 10.3984 6.26788 11.5594 5.41365C12.7203 4.53807 14.2243 4.10028 16.0712 4.10028C17.9446 4.10028 19.4749 4.43129 20.6623 5.09332C21.8496 5.73399 22.4433 6.56685 22.4433 7.59192C22.4433 8.23259 22.4037 8.77716 22.3245 9.22563C22.9842 9.37512 23.657 9.44986 24.343 9.44986C25.5303 9.44986 26.467 9.21495 27.153 8.74513C27.839 8.25395 29 10.7846 29 9.93036C29 8.62767 27.6675 4.26045 26.6385 3.23538C25.6359 2.21031 24.2111 1.42015 22.3641 0.864904C20.5171 0.288301 18.4195 0 16.0712 0C13.723 0 11.6253 0.373723 9.77836 1.12117C7.95778 1.84726 6.53298 2.87233 5.50396 4.19638C4.50132 5.52043 4 7.03668 4 8.74513V14.1908C4 15.8993 4.51451 17.4262 5.54353 18.7716C6.59894 20.0956 8.06332 21.1314 9.93667 21.8788Z" fill="url(#paint0_radial_9_10)"/>
</g>
<g filter="url(#filter1_b_9_10)">
<path d="M13.1271 13.2692V7.96153H12.2833V7.07692H13.5489C13.7819 7.07692 13.9708 7.27495 13.9708 7.51923V12.8269H19.2183L20.062 9.28846H14.8146V8.40384H20.6024C20.8354 8.40384 21.0242 8.60187 21.0242 8.84615C21.0242 8.88231 21.02 8.91834 21.0116 8.95343L19.9569 13.3765C19.91 13.5734 19.7413 13.7115 19.5477 13.7115H13.5489C13.3159 13.7115 13.1271 13.5135 13.1271 13.2692ZM13.9708 16.3654C13.5048 16.3654 13.1271 15.9693 13.1271 15.4808C13.1271 14.9922 13.5048 14.5962 13.9708 14.5962C14.4368 14.5962 14.8146 14.9922 14.8146 15.4808C14.8146 15.9693 14.4368 16.3654 13.9708 16.3654ZM19.0333 16.3654C18.5673 16.3654 18.1896 15.9693 18.1896 15.4808C18.1896 14.9922 18.5673 14.5962 19.0333 14.5962C19.4993 14.5962 19.8771 14.9922 19.8771 15.4808C19.8771 15.9693 19.4993 16.3654 19.0333 16.3654Z" fill="#44F6B2"/>
<path d="M13.1271 13.2692V7.96153H12.2833V7.07692H13.5489C13.7819 7.07692 13.9708 7.27495 13.9708 7.51923V12.8269H19.2183L20.062 9.28846H14.8146V8.40384H20.6024C20.8354 8.40384 21.0242 8.60187 21.0242 8.84615C21.0242 8.88231 21.02 8.91834 21.0116 8.95343L19.9569 13.3765C19.91 13.5734 19.7413 13.7115 19.5477 13.7115H13.5489C13.3159 13.7115 13.1271 13.5135 13.1271 13.2692ZM13.9708 16.3654C13.5048 16.3654 13.1271 15.9693 13.1271 15.4808C13.1271 14.9922 13.5048 14.5962 13.9708 14.5962C14.4368 14.5962 14.8146 14.9922 14.8146 15.4808C14.8146 15.9693 14.4368 16.3654 13.9708 16.3654ZM19.0333 16.3654C18.5673 16.3654 18.1896 15.9693 18.1896 15.4808C18.1896 14.9922 18.5673 14.5962 19.0333 14.5962C19.4993 14.5962 19.8771 14.9922 19.8771 15.4808C19.8771 15.9693 19.4993 16.3654 19.0333 16.3654Z" stroke="#44F6B2" stroke-width="0.6"/>
</g>
<defs>
<filter id="filter0_d_9_10" x="0" y="0" width="33" height="31" filterUnits="userSpaceOnUse" color-interpolation-filters="sRGB">
<feFlood flood-opacity="0" result="BackgroundImageFix"/>
<feColorMatrix in="SourceAlpha" type="matrix" values="0 0 0 0 0 0 0 0 0 0 0 0 0 0 0 0 0 0 127 0" result="hardAlpha"/>
<feOffset dy="4"/>
<feGaussianBlur stdDeviation="2"/>
<feComposite in2="hardAlpha" operator="out"/>
<feColorMatrix type="matrix" values="0 0 0 0 0 0 0 0 0 0 0 0 0 0 0 0 0 0 0.25 0"/>
<feBlend mode="normal" in2="BackgroundImageFix" result="effect1_dropShadow_9_10"/>
<feBlend mode="normal" in="SourceGraphic" in2="effect1_dropShadow_9_10" result="shape"/>
</filter>
<filter id="filter1_b_9_10" x="7.98331" y="2.77692" width="17.3409" height="17.8885" filterUnits="userSpaceOnUse" color-interpolation-filters="sRGB">
<feFlood flood-opacity="0" result="BackgroundImageFix"/>
<feGaussianBlur in="BackgroundImageFix" stdDeviation="2"/>
<feComposite in2="SourceAlpha" operator="in" result="effect1_backgroundBlur_9_10"/>
<feBlend mode="normal" in="SourceGraphic" in2="effect1_backgroundBlur_9_10" result="shape"/>
</filter>
<radialGradient id="paint0_radial_9_10" cx="0" cy="0" r="1" gradientUnits="userSpaceOnUse" gradientTransform="translate(42.0299 9.2327) rotate(90) scale(20.9107 29.4238)">
<stop stop-color="#E6E0E0"/>
<stop offset="0.786667" stop-color="#50F709"/>
<stop offset="0.871667" stop-color="#44F6B2"/>
</radialGradient>
</defs>
</svg>
