<svg width="81" height="35" viewBox="0 0 81 35" fill="none" xmlns="http://www.w3.org/2000/svg">
<g filter="url(#filter0_d_1_3)">
<path d="M15.456 26.324C13.296 26.324 11.364 25.904 9.66 25.064C7.956 24.224 6.624 23.06 5.664 21.572C4.728 20.06 4.26 18.344 4.26 16.424V10.304C4.26 8.384 4.716 6.68 5.628 5.192C6.564 3.704 7.86 2.552 9.516 1.736C11.196 0.895998 13.104 0.475998 15.24 0.475998C17.376 0.475998 19.284 0.799998 20.964 1.448C22.644 2.072 23.94 2.96 24.852 4.112C25.788 5.264 26.256 6.572 26.256 8.036C26.256 8.996 25.944 9.752 25.32 10.304C24.696 10.832 23.844 11.096 22.764 11.096C22.14 11.096 21.528 11.012 20.928 10.844C21 10.34 21.036 9.728 21.036 9.008C21.036 7.856 20.496 6.92 19.416 6.2C18.336 5.456 16.944 5.084 15.24 5.084C13.56 5.084 12.192 5.576 11.136 6.56C10.08 7.52 9.552 8.768 9.552 10.304V16.424C9.552 17.984 10.092 19.256 11.172 20.24C12.276 21.224 13.704 21.716 15.456 21.716C17.16 21.716 18.54 21.356 19.596 20.636C20.676 19.916 21.216 18.98 21.216 17.828C21.216 17.036 21.18 16.46 21.108 16.1C21.756 15.956 22.344 15.884 22.872 15.884C23.952 15.884 24.816 16.16 25.464 16.712C26.112 17.264 26.436 18.02 26.436 18.98C26.436 20.396 25.968 21.668 25.032 22.796C24.12 23.9 22.824 24.764 21.144 25.388C19.488 26.012 17.592 26.324 15.456 26.324ZM34.7216 26.324C33.5456 26.324 32.4416 26.096 31.4096 25.64C30.4016 25.16 29.5856 24.476 28.9616 23.588C28.3376 22.676 28.0256 21.584 28.0256 20.312C28.0256 19.04 28.3616 17.948 29.0336 17.036C29.7056 16.1 30.5936 15.392 31.6976 14.912C32.8256 14.432 34.0496 14.192 35.3696 14.192C36.4736 14.192 37.4456 14.36 38.2856 14.696C39.1496 15.032 39.9536 15.524 40.6976 16.172L40.8776 15.956C40.3736 15.5 39.9776 15.176 39.6896 14.984V14.516C39.6896 13.604 39.3536 12.884 38.6816 12.356C38.0336 11.804 37.1096 11.528 35.9096 11.528C34.8536 11.528 33.9176 11.72 33.1016 12.104C32.2856 12.488 31.6256 13.052 31.1216 13.796C30.5456 13.652 30.0536 13.388 29.6456 13.004C29.2616 12.596 29.0696 12.152 29.0696 11.672C29.0696 10.928 29.3936 10.256 30.0416 9.656C30.6896 9.032 31.5656 8.552 32.6696 8.216C33.7976 7.856 35.0336 7.676 36.3776 7.676C38.9936 7.676 41.0096 8.276 42.4256 9.476C43.8416 10.676 44.5496 12.308 44.5496 14.372V23.12C44.5496 24.248 44.1776 25.064 43.4336 25.568C42.7136 26.072 41.5616 26.324 39.9776 26.324V24.92C40.3376 24.584 40.6256 24.284 40.8416 24.02L40.6616 23.84C39.8696 24.656 39.0416 25.28 38.1776 25.712C37.3136 26.12 36.1616 26.324 34.7216 26.324ZM36.0896 22.796C37.2416 22.796 38.1416 22.58 38.7896 22.148C39.4376 21.716 39.7616 21.092 39.7616 20.276C39.7616 19.484 39.4256 18.86 38.7536 18.404C38.1056 17.948 37.2176 17.72 36.0896 17.72C35.0816 17.72 34.2776 17.948 33.6776 18.404C33.1016 18.86 32.8136 19.484 32.8136 20.276C32.8136 21.092 33.1016 21.716 33.6776 22.148C34.2776 22.58 35.0816 22.796 36.0896 22.796ZM58.0837 11.924C56.6437 11.924 55.4797 12.296 54.5917 13.04C53.7037 13.784 53.2597 14.72 53.2597 15.848V23.444C53.2597 24.476 52.8517 25.22 52.0357 25.676C51.2437 26.108 50.0077 26.324 48.3277 26.324V11.42C48.3277 10.22 48.7237 9.296 49.5157 8.648C50.3077 8 51.4837 7.676 53.0437 7.676V9.8C52.6837 10.184 52.3837 10.592 52.1437 11.024L52.3957 11.168C53.9077 8.84 55.7917 7.676 58.0477 7.676C59.1277 7.676 59.9437 7.964 60.4957 8.54C61.0477 9.116 61.3237 9.848 61.3237 10.736C61.3237 11.408 61.1437 11.996 60.7837 12.5C60.1117 12.116 59.2117 11.924 58.0837 11.924ZM72.3402 26.324C70.3002 26.324 68.8002 25.736 67.8402 24.56C66.8802 23.384 66.4002 21.872 66.4002 20.024V11.636H62.5842C62.5842 10.412 62.8122 9.5 63.2682 8.9C63.7242 8.3 64.3242 8 65.0682 8H66.4722V5.156C66.4722 4.124 66.8682 3.392 67.6602 2.96C68.4522 2.504 69.6522 2.276 71.2602 2.276V8H76.0482C76.0482 9.296 75.8082 10.232 75.3282 10.808C74.8482 11.36 74.0562 11.636 72.9522 11.636H71.3322V19.844C71.3322 20.636 71.4882 21.212 71.8002 21.572C72.1122 21.908 72.6522 22.076 73.4202 22.076C74.2602 22.076 75.1242 21.836 76.0122 21.356C76.2762 21.596 76.4802 21.896 76.6242 22.256C76.7922 22.616 76.8762 22.976 76.8762 23.336C76.8762 23.816 76.7082 24.284 76.3722 24.74C76.0362 25.196 75.5202 25.58 74.8242 25.892C74.1522 26.18 73.3242 26.324 72.3402 26.324Z" fill="url(#paint0_diamond_1_3)"/>
</g>
<defs>
<filter id="filter0_d_1_3" x="0.260002" y="0.475998" width="80.6162" height="33.848" filterUnits="userSpaceOnUse" color-interpolation-filters="sRGB">
<feFlood flood-opacity="0" result="BackgroundImageFix"/>
<feColorMatrix in="SourceAlpha" type="matrix" values="0 0 0 0 0 0 0 0 0 0 0 0 0 0 0 0 0 0 127 0" result="hardAlpha"/>
<feOffset dy="4"/>
<feGaussianBlur stdDeviation="2"/>
<feComposite in2="hardAlpha" operator="out"/>
<feColorMatrix type="matrix" values="0 0 0 0 0 0 0 0 0 0 0 0 0 0 0 0 0 0 0.25 0"/>
<feBlend mode="normal" in2="BackgroundImageFix" result="effect1_dropShadow_1_3"/>
<feBlend mode="normal" in="SourceGraphic" in2="effect1_dropShadow_1_3" result="shape"/>
</filter>
<radialGradient id="paint0_diamond_1_3" cx="0" cy="0" r="1" gradientUnits="userSpaceOnUse" gradientTransform="translate(44 11.5) rotate(90) scale(23.5 26.7639)">
<stop stop-color="#E6E0E0"/>
<stop offset="0.786667" stop-color="#50F709"/>
<stop offset="0.871667" stop-color="#44F6B2"/>
</radialGradient>
</defs>
</svg>
