<svg width="130" height="65" viewBox="0 0 130 65" fill="none" xmlns="http://www.w3.org/2000/svg">
<rect width="130" height="65" rx="7" fill="white"/>
<g filter="url(#filter0_d_1_2)">
<path d="M36.456 41.324C34.296 41.324 32.364 40.904 30.66 40.064C28.956 39.224 27.624 38.06 26.664 36.572C25.728 35.06 25.26 33.344 25.26 31.424V25.304C25.26 23.384 25.716 21.68 26.628 20.192C27.564 18.704 28.86 17.552 30.516 16.736C32.196 15.896 34.104 15.476 36.24 15.476C38.376 15.476 40.284 15.8 41.964 16.448C43.644 17.072 44.94 17.96 45.852 19.112C46.788 20.264 47.256 21.572 47.256 23.036C47.256 23.996 46.944 24.752 46.32 25.304C45.696 25.832 44.844 26.096 43.764 26.096C43.14 26.096 42.528 26.012 41.928 25.844C42 25.34 42.036 24.728 42.036 24.008C42.036 22.856 41.496 21.92 40.416 21.2C39.336 20.456 37.944 20.084 36.24 20.084C34.56 20.084 33.192 20.576 32.136 21.56C31.08 22.52 30.552 23.768 30.552 25.304V31.424C30.552 32.984 31.092 34.256 32.172 35.24C33.276 36.224 34.704 36.716 36.456 36.716C38.16 36.716 39.54 36.356 40.596 35.636C41.676 34.916 42.216 33.98 42.216 32.828C42.216 32.036 42.18 31.46 42.108 31.1C42.756 30.956 43.344 30.884 43.872 30.884C44.952 30.884 45.816 31.16 46.464 31.712C47.112 32.264 47.436 33.02 47.436 33.98C47.436 35.396 46.968 36.668 46.032 37.796C45.12 38.9 43.824 39.764 42.144 40.388C40.488 41.012 38.592 41.324 36.456 41.324ZM55.7216 41.324C54.5456 41.324 53.4416 41.096 52.4096 40.64C51.4016 40.16 50.5856 39.476 49.9616 38.588C49.3376 37.676 49.0256 36.584 49.0256 35.312C49.0256 34.04 49.3616 32.948 50.0336 32.036C50.7056 31.1 51.5936 30.392 52.6976 29.912C53.8256 29.432 55.0496 29.192 56.3696 29.192C57.4736 29.192 58.4456 29.36 59.2856 29.696C60.1496 30.032 60.9536 30.524 61.6976 31.172L61.8776 30.956C61.3736 30.5 60.9776 30.176 60.6896 29.984V29.516C60.6896 28.604 60.3536 27.884 59.6816 27.356C59.0336 26.804 58.1096 26.528 56.9096 26.528C55.8536 26.528 54.9176 26.72 54.1016 27.104C53.2856 27.488 52.6256 28.052 52.1216 28.796C51.5456 28.652 51.0536 28.388 50.6456 28.004C50.2616 27.596 50.0696 27.152 50.0696 26.672C50.0696 25.928 50.3936 25.256 51.0416 24.656C51.6896 24.032 52.5656 23.552 53.6696 23.216C54.7976 22.856 56.0336 22.676 57.3776 22.676C59.9936 22.676 62.0096 23.276 63.4256 24.476C64.8416 25.676 65.5496 27.308 65.5496 29.372V38.12C65.5496 39.248 65.1776 40.064 64.4336 40.568C63.7136 41.072 62.5616 41.324 60.9776 41.324V39.92C61.3376 39.584 61.6256 39.284 61.8416 39.02L61.6616 38.84C60.8696 39.656 60.0416 40.28 59.1776 40.712C58.3136 41.12 57.1616 41.324 55.7216 41.324ZM57.0896 37.796C58.2416 37.796 59.1416 37.58 59.7896 37.148C60.4376 36.716 60.7616 36.092 60.7616 35.276C60.7616 34.484 60.4256 33.86 59.7536 33.404C59.1056 32.948 58.2176 32.72 57.0896 32.72C56.0816 32.72 55.2776 32.948 54.6776 33.404C54.1016 33.86 53.8136 34.484 53.8136 35.276C53.8136 36.092 54.1016 36.716 54.6776 37.148C55.2776 37.58 56.0816 37.796 57.0896 37.796ZM79.0837 26.924C77.6437 26.924 76.4797 27.296 75.5917 28.04C74.7037 28.784 74.2597 29.72 74.2597 30.848V38.444C74.2597 39.476 73.8517 40.22 73.0357 40.676C72.2437 41.108 71.0077 41.324 69.3277 41.324V26.42C69.3277 25.22 69.7237 24.296 70.5157 23.648C71.3077 23 72.4837 22.676 74.0437 22.676V24.8C73.6837 25.184 73.3837 25.592 73.1437 26.024L73.3957 26.168C74.9077 23.84 76.7917 22.676 79.0477 22.676C80.1277 22.676 80.9437 22.964 81.4957 23.54C82.0477 24.116 82.3237 24.848 82.3237 25.736C82.3237 26.408 82.1437 26.996 81.7837 27.5C81.1117 27.116 80.2117 26.924 79.0837 26.924ZM93.3402 41.324C91.3002 41.324 89.8002 40.736 88.8402 39.56C87.8802 38.384 87.4002 36.872 87.4002 35.024V26.636H83.5842C83.5842 25.412 83.8122 24.5 84.2682 23.9C84.7242 23.3 85.3242 23 86.0682 23H87.4722V20.156C87.4722 19.124 87.8682 18.392 88.6602 17.96C89.4522 17.504 90.6522 17.276 92.2602 17.276V23H97.0482C97.0482 24.296 96.8082 25.232 96.3282 25.808C95.8482 26.36 95.0562 26.636 93.9522 26.636H92.3322V34.844C92.3322 35.636 92.4882 36.212 92.8002 36.572C93.1122 36.908 93.6522 37.076 94.4202 37.076C95.2602 37.076 96.1242 36.836 97.0122 36.356C97.2762 36.596 97.4802 36.896 97.6242 37.256C97.7922 37.616 97.8762 37.976 97.8762 38.336C97.8762 38.816 97.7082 39.284 97.3722 39.74C97.0362 40.196 96.5202 40.58 95.8242 40.892C95.1522 41.18 94.3242 41.324 93.3402 41.324Z" fill="url(#paint0_diamond_1_2)"/>
</g>
<defs>
<filter id="filter0_d_1_2" x="21.26" y="15.476" width="80.6162" height="33.848" filterUnits="userSpaceOnUse" color-interpolation-filters="sRGB">
<feFlood flood-opacity="0" result="BackgroundImageFix"/>
<feColorMatrix in="SourceAlpha" type="matrix" values="0 0 0 0 0 0 0 0 0 0 0 0 0 0 0 0 0 0 127 0" result="hardAlpha"/>
<feOffset dy="4"/>
<feGaussianBlur stdDeviation="2"/>
<feComposite in2="hardAlpha" operator="out"/>
<feColorMatrix type="matrix" values="0 0 0 0 0 0 0 0 0 0 0 0 0 0 0 0 0 0 0.25 0"/>
<feBlend mode="normal" in2="BackgroundImageFix" result="effect1_dropShadow_1_2"/>
<feBlend mode="normal" in="SourceGraphic" in2="effect1_dropShadow_1_2" result="shape"/>
</filter>
<radialGradient id="paint0_diamond_1_2" cx="0" cy="0" r="1" gradientUnits="userSpaceOnUse" gradientTransform="translate(65 26.5) rotate(90) scale(23.5 26.7639)">
<stop stop-color="#E6E0E0"/>
<stop offset="0.786667" stop-color="#50F709"/>
<stop offset="0.871667" stop-color="#44F6B2"/>
</radialGradient>
</defs>
</svg>
